<svg width="35" height="35" viewBox="0 0 35 35" fill="none" xmlns="http://www.w3.org/2000/svg">
<path d="M30.6017 16.7582C30.6068 18.6815 30.1574 20.5788 29.2902 22.2956C28.2621 24.3529 26.6814 26.0832 24.7254 27.2929C22.7693 28.5025 20.5151 29.1437 18.2153 29.1446C16.2919 29.1496 14.3946 28.7003 12.6778 27.8331L4.37158 30.6019L7.14032 22.2956C6.27317 20.5788 5.8238 18.6815 5.82881 16.7582C5.8297 14.4583 6.47089 12.2041 7.68054 10.248C8.8902 8.29201 10.6206 6.71137 12.6778 5.6832C14.3946 4.81605 16.2919 4.36668 18.2153 4.37169H18.9439C21.9813 4.53926 24.8501 5.82129 27.0011 7.9723C29.1521 10.1233 30.4342 12.9922 30.6017 16.0295V16.7582Z" stroke="#FAFAFA" stroke-width="2.91446" stroke-linecap="round" stroke-linejoin="round"/>
</svg>
